<svg aria-hidden="true" style="width:0;height:0;position:absolute;overflow:hidden" xmlns="http://www.w3.org/2000/svg"><defs><symbol id="dropdown-icon" viewBox="0 0 52 32"><path d="M26 32 .019 2h51.962L26 32z"/></symbol><symbol id="search-icon" viewBox="0 0 32 32"><path d="M4.024 4.024C6.619 1.429 10.069 0 13.739 0s7.12 1.429 9.715 4.024a13.649 13.649 0 0 1 4.024 9.715 13.64 13.64 0 0 1-3.383 9.029l7.63 7.63a.94.94 0 0 1-1.327 1.327l-7.63-7.63a13.635 13.635 0 0 1-9.029 3.383c-3.67 0-7.12-1.429-9.715-4.024S0 17.409 0 13.739s1.429-7.12 4.024-9.715zm1.327 18.103c4.625 4.625 12.15 4.625 16.775 0s4.625-12.15 0-16.775c-2.313-2.313-5.35-3.469-8.388-3.469S7.662 3.04 5.35 5.352c-4.625 4.625-4.625 12.15 0 16.775z"/></symbol><symbol id="logo-letters-icon" viewBox="0 0 62 32"><path d="M19.119 23.909c-.575-1.648-1.759-2.472-3.552-2.472h-.566V31.6h.566c1.385 0 2.408-.563 3.068-1.688.556-.96.834-2.183.834-3.666-.001-.883-.118-1.662-.35-2.337zM9.412 24.031c.576 1.648 1.76 2.471 3.551 2.471h.566V16.339h-.566c-1.385 0-2.408.563-3.068 1.688-.554.96-.831 2.182-.832 3.666 0 .882.116 1.661.348 2.337zM0 .108h7.526V2.8H2.702v1.346H6.71V6.7H2.702v1.361h4.824v2.692H0V.109zM11.31.096h9.737L16.178 10.97 11.309.096zm4.869 9.527L20.202.661h-8.03l4.008 8.962zM24.937.108h7.526V2.8h-4.824v1.346h4.008V6.7h-4.008v1.361h4.824v2.692h-7.526V.109zM37.094 10.737V.095h.579l7.214 7.234V.095h.549v10.644l-8.342-.003zM53.318 10.753V2.8h-3.904V.108h8.342V2.8h-3.904v7.953h-.534zM4.438 18.461c.653 0 1.173.102 1.559.306.443.223.816.572 1.074 1.005s.39.934.381 1.442c.003.49-.131.97-.386 1.384-.259.424-.623.77-1.054 1.002a2.94 2.94 0 0 1 1.351 1.009c.359.459.553 1.032.549 1.621a2.816 2.816 0 0 1-.393 1.46 2.919 2.919 0 0 1-1.046 1.048 2.69 2.69 0 0 1-.727.275c-.267.061-.623.092-1.069.092H.105V18.461h4.334zM21.842 28.333c-.777-.698-1.16-1.746-1.15-3.143h2.419c-.01.581.158 1.025.505 1.331s.831.459 1.455.459c.515 0 .92-.087 1.217-.26s.445-.438.445-.795c0-.296-.151-.51-.453-.642a4.165 4.165 0 0 0-.898-.283l-.549-.102a11.623 11.623 0 0 1-1.974-.561 3.44 3.44 0 0 1-1.395-.994c-.376-.449-.564-1.04-.564-1.774s.188-1.359.564-1.873c.376-.515.878-.9 1.507-1.155a5.409 5.409 0 0 1 2.056-.382c.901 0 1.68.173 2.338.52s1.175.872 1.551 1.575c.174.297.29.627.341.971.039.302.059.606.059.91h-2.419c0-.551-.143-.956-.43-1.216s-.732-.39-1.336-.39c-.485 0-.861.087-1.128.26s-.401.408-.401.703c0 .326.178.566.534.719.438.178.89.316 1.351.413.891.184 1.586.359 2.086.528.504.171.953.48 1.299.895.366.428.549 1.03.549 1.805 0 .734-.198 1.366-.594 1.896s-.918.935-1.566 1.216a5.24 5.24 0 0 1-2.1.421c-1.435-.002-2.541-.352-3.318-1.05zM35.506 29.105v-7.953h-3.904V18.46h8.342v2.692H36.04v7.953h-.534zM42.749 18.461h7.526v2.692h-4.824v1.346h4.008v2.554h-4.008v1.361h4.824v2.692h-7.526V18.462zM61.422 29.105h-7.941V18.461h4.023c.861 0 1.563.158 2.108.474.52.291.951.725 1.247 1.254.298.535.452 1.142.445 1.759a3.433 3.433 0 0 1-.713 2.133 3.345 3.345 0 0 1-1.796 1.246l2.628 3.777zm-7.392-9.711v5.49h3.815l-3.815-5.49zm0 9.145h6.353l-2.167-3.105-.46.015H54.03v3.089zm.386-9.513 4.037 5.811a2.83 2.83 0 0 0 1.648-1.025c.428-.521.66-1.183.653-1.866a2.983 2.983 0 0 0-.401-1.529 2.656 2.656 0 0 0-1.128-1.055c-.436-.224-1.005-.336-1.707-.336h-3.102z"/></symbol><symbol id="icon-arrow-up" viewBox="0 0 40 32"><path d="M39.89 16.48c-.118.224-.316.415-.569.549s-.551.205-.854.205h-7.694v8.614c0 .326-.162.639-.451.87s-.68.36-1.088.36H10.768c-.408 0-.8-.13-1.088-.36s-.451-.544-.451-.87v-8.614H1.535c-.304.001-.601-.07-.854-.205s-.451-.325-.569-.549c-.111-.227-.139-.475-.081-.715s.199-.461.408-.639L18.905.36c.292-.231.686-.361 1.096-.361s.805.13 1.096.361l18.466 14.766c.209.178.35.399.408.639s.03.487-.081.715zM29.233 29.539H10.767c-.408 0-.8.13-1.088.36s-.451.544-.451.87c0 .326.162.639.451.87s.68.36 1.088.36h18.466c.408 0 .8-.13 1.088-.36s.451-.544.451-.87c0-.326-.162-.639-.451-.87s-.68-.36-1.088-.36z"/></symbol></defs></svg>