<svg aria-hidden="true" style="position: absolute; width: 0; height: 0; overflow: hidden;" version="1.1"
    xmlns="http://www.w3.org/2000/svg"
    xmlns:xlink="http://www.w3.org/1999/xlink">
    <defs>
        <symbol id="dropdown-icon" viewBox="0 0 52 32">
            <path d="M26 32l-25.981-30h51.962l-25.981 30z"></path>
        </symbol>
        <symbol id="search-icon" viewBox="0 0 32 32">
            <path d="M4.024 4.024c2.595-2.595 6.045-4.024 9.715-4.024s7.12 1.429 9.715 4.024c2.595 2.595 4.024 6.045 4.024 9.715 0 3.355-1.195 6.526-3.383 9.029l7.63 7.63c0.366 0.366 0.366 0.961 0 1.327-0.183 0.183-0.423 0.275-0.664 0.275s-0.48-0.092-0.663-0.275l-7.63-7.63c-2.502 2.188-5.673 3.383-9.029 3.383-3.67 0-7.12-1.429-9.715-4.024s-4.024-6.045-4.024-9.715 1.429-7.12 4.024-9.715zM5.351 22.127c4.625 4.625 12.15 4.625 16.775 0s4.625-12.15 0-16.775c-2.313-2.313-5.35-3.469-8.388-3.469s-6.076 1.157-8.388 3.469c-4.625 4.625-4.625 12.15 0 16.775z"></path>
        </symbol>
        <symbol id="logo-letters-icon" viewBox="0 0 62 32">
            <path d="M19.119 23.909c-0.575-1.648-1.759-2.472-3.552-2.472h-0.566v10.163h0.566c1.385 0 2.408-0.563 3.068-1.688 0.556-0.96 0.834-2.183 0.834-3.666-0.001-0.883-0.118-1.662-0.35-2.337z"></path>
            <path d="M9.412 24.031c0.576 1.648 1.76 2.471 3.551 2.471h0.566v-10.163h-0.566c-1.385 0-2.408 0.563-3.068 1.688-0.554 0.96-0.831 2.182-0.832 3.666 0 0.882 0.116 1.661 0.348 2.337z"></path>
            <path d="M0 0.108h7.526v2.692h-4.824v1.346h4.008v2.554h-4.008v1.361h4.824v2.692h-7.526v-10.644z"></path>
            <path d="M11.31 0.096h9.737l-4.869 10.874-4.869-10.874zM16.179 9.623l4.023-8.962h-8.030l4.008 8.962z"></path>
            <path d="M24.937 0.108h7.526v2.692h-4.824v1.346h4.008v2.554h-4.008v1.361h4.824v2.692h-7.526v-10.644z"></path>
            <path d="M37.094 10.737v-10.642h0.579l7.214 7.234v-7.234h0.549v10.644l-8.342-0.003z"></path>
            <path d="M53.318 10.753v-7.953h-3.904v-2.692h8.342v2.692h-3.904v7.953h-0.534z"></path>
            <path d="M4.438 18.461c0.653 0 1.173 0.102 1.559 0.306 0.443 0.223 0.816 0.572 1.074 1.005s0.39 0.934 0.381 1.442c0.003 0.49-0.131 0.97-0.386 1.384-0.259 0.424-0.623 0.77-1.054 1.002 0.536 0.195 1.005 0.545 1.351 1.009 0.359 0.459 0.553 1.032 0.549 1.621 0.004 0.515-0.132 1.021-0.393 1.46-0.255 0.436-0.616 0.797-1.046 1.048-0.229 0.127-0.473 0.219-0.727 0.275-0.267 0.061-0.623 0.092-1.069 0.092h-4.572v-10.644h4.334z"></path>
            <path d="M21.842 28.333c-0.777-0.698-1.16-1.746-1.15-3.143h2.419c-0.010 0.581 0.158 1.025 0.505 1.331s0.831 0.459 1.455 0.459c0.515 0 0.92-0.087 1.217-0.26s0.445-0.438 0.445-0.795c0-0.296-0.151-0.51-0.453-0.642-0.288-0.128-0.589-0.223-0.898-0.283-0.297-0.056-0.48-0.090-0.549-0.102-0.672-0.128-1.333-0.316-1.974-0.561-0.538-0.206-1.018-0.548-1.395-0.994-0.376-0.449-0.564-1.040-0.564-1.774s0.188-1.359 0.564-1.873c0.376-0.515 0.878-0.9 1.507-1.155 0.656-0.26 1.353-0.39 2.056-0.382 0.901 0 1.68 0.173 2.338 0.52s1.175 0.872 1.551 1.575c0.174 0.297 0.29 0.627 0.341 0.971 0.039 0.302 0.059 0.606 0.059 0.91h-2.419c0-0.551-0.143-0.956-0.43-1.216s-0.732-0.39-1.336-0.39c-0.485 0-0.861 0.087-1.128 0.26s-0.401 0.408-0.401 0.703c0 0.326 0.178 0.566 0.534 0.719 0.438 0.178 0.89 0.316 1.351 0.413 0.891 0.184 1.586 0.359 2.086 0.528 0.504 0.171 0.953 0.48 1.299 0.895 0.366 0.428 0.549 1.030 0.549 1.805 0 0.734-0.198 1.366-0.594 1.896s-0.918 0.935-1.566 1.216c-0.666 0.284-1.38 0.427-2.1 0.421-1.435-0.002-2.541-0.352-3.318-1.050z"></path>
            <path d="M35.506 29.105v-7.953h-3.904v-2.692h8.342v2.692h-3.904v7.953h-0.534z"></path>
            <path d="M42.749 18.461h7.526v2.692h-4.824v1.346h4.008v2.554h-4.008v1.361h4.824v2.692h-7.526v-10.644z"></path>
            <path d="M61.422 29.105h-7.941v-10.644h4.023c0.861 0 1.563 0.158 2.108 0.474 0.52 0.291 0.951 0.725 1.247 1.254 0.298 0.535 0.452 1.142 0.445 1.759 0.007 0.774-0.244 1.528-0.713 2.133-0.448 0.609-1.080 1.047-1.796 1.246l2.628 3.777zM54.030 19.394v5.49h3.815l-3.815-5.49zM54.030 28.539h6.353l-2.167-3.105-0.46 0.015h-3.726v3.089zM54.416 19.026l4.037 5.811c0.648-0.134 1.231-0.496 1.648-1.025 0.428-0.521 0.66-1.183 0.653-1.866 0.006-0.538-0.133-1.067-0.401-1.529-0.267-0.459-0.659-0.826-1.128-1.055-0.436-0.224-1.005-0.336-1.707-0.336h-3.102z"></path>
        </symbol>
        <symbol id="icon-arrow-up" viewBox="0 0 40 32">
            <path d="M39.89 16.48c-0.118 0.224-0.316 0.415-0.569 0.549s-0.551 0.205-0.854 0.205h-7.694v8.614c0 0.326-0.162 0.639-0.451 0.87s-0.68 0.36-1.088 0.36h-18.466c-0.408 0-0.8-0.13-1.088-0.36s-0.451-0.544-0.451-0.87v-8.614h-7.694c-0.304 0.001-0.601-0.070-0.854-0.205s-0.451-0.325-0.569-0.549c-0.111-0.227-0.139-0.475-0.081-0.715s0.199-0.461 0.408-0.639l18.466-14.766c0.292-0.231 0.686-0.361 1.096-0.361s0.805 0.13 1.096 0.361l18.466 14.766c0.209 0.178 0.35 0.399 0.408 0.639s0.030 0.487-0.081 0.715v0zM29.233 29.539h-18.466c-0.408 0-0.8 0.13-1.088 0.36s-0.451 0.544-0.451 0.87c0 0.326 0.162 0.639 0.451 0.87s0.68 0.36 1.088 0.36h18.466c0.408 0 0.8-0.13 1.088-0.36s0.451-0.544 0.451-0.87c0-0.326-0.162-0.639-0.451-0.87s-0.68-0.36-1.088-0.36z"></path>
        </symbol>
    </defs>
</svg>