<svg width="12" height="12" viewBox="0 0 12 12" fill="none" xmlns="http://www.w3.org/2000/svg">
<path d="M1.50899 1.50905C2.48211 0.535922 3.77593 0 5.15211 0C6.52829 0 7.82211 0.535922 8.79521 1.50905C9.76831 2.48215 10.3043 3.77597 10.3043 5.15213C10.3043 6.41032 9.85604 7.59949 9.03554 8.53786L11.8969 11.3992C12.0343 11.5366 12.0343 11.7595 11.8969 11.8969C11.8281 11.9656 11.7381 12 11.648 12C11.558 12 11.4679 11.9656 11.3992 11.8969L8.53785 9.03558C7.59948 9.85605 6.41031 10.3043 5.15211 10.3043C3.77591 10.3043 2.48213 9.76838 1.50901 8.79525C0.535907 7.82215 -1.47819e-05 6.52833 -1.47819e-05 5.15215C-1.47819e-05 3.77597 0.535884 2.48215 1.50899 1.50905ZM2.0067 8.29755C3.7411 10.0319 6.56309 10.0319 8.29749 8.29755C10.0319 6.56318 10.0319 3.74114 8.29749 2.00677C7.43021 1.13948 6.29134 0.705984 5.15209 0.705984C4.01312 0.705984 2.87377 1.1397 2.00668 2.00677C0.272352 3.74112 0.272352 6.56316 2.0067 8.29755Z" fill="#939393"/>
</svg>
