<svg width="137" height="71" viewBox="0 0 137 71" fill="none" xmlns="http://www.w3.org/2000/svg">
<path d="M42.4198 53.0485C41.1434 49.3928 38.5167 47.5646 34.5397 47.5639H33.2849V70.1132H34.5397C37.6135 70.1132 39.8824 68.8648 41.3461 66.3681C42.5793 64.2372 43.1959 61.5256 43.1959 58.2334C43.193 56.2751 42.9343 54.5468 42.4198 53.0485Z" fill="white"/>
<path d="M20.8839 53.3188C22.1617 56.9745 24.7881 58.8023 28.7629 58.8023H30.0177V36.253H28.7629C25.689 36.253 23.4202 37.5014 21.9565 39.998C20.7269 42.1282 20.1118 44.8398 20.111 48.1328C20.111 50.0888 20.3686 51.8175 20.8839 53.3188Z" fill="white"/>
<path d="M0 0.240387H16.6978V6.2125H5.99408V9.19857H14.8864V14.8653H5.99408V17.8853H16.6978V23.8574H0V0.240387Z" fill="white"/>
<path d="M25.0952 0.212097H46.7002L35.8977 24.3381L25.0952 0.212097ZM35.8977 21.3521L44.8229 1.4676H27.0054L35.8977 21.3521Z" fill="white"/>
<path d="M55.3291 0.240387H72.0269V6.2125H61.3232V9.19857H70.2155V14.8653H61.3232V17.8853H72.0269V23.8574H55.3291V0.240387Z" fill="white"/>
<path d="M82.3025 23.8235V0.212097H83.5869L99.5931 16.2622V0.212097H100.812V23.8291L82.3025 23.8235Z" fill="white"/>
<path d="M118.3 23.8574V6.2125H109.638V0.240387H128.147V6.2125H119.486V23.8574H118.3Z" fill="white"/>
<path d="M9.8463 40.9595C11.2954 40.9595 12.4481 41.1857 13.3044 41.6381C14.2883 42.1326 15.1146 42.9062 15.6864 43.868C16.2581 44.8297 16.5515 45.9397 16.532 47.0673C16.538 48.1543 16.2408 49.2202 15.6757 50.1382C15.1015 51.0797 14.2944 51.8468 13.3374 52.3608C14.5257 52.7926 15.5669 53.5706 16.3344 54.6003C17.131 55.6186 17.5615 56.8893 17.553 58.1972C17.5614 59.3401 17.2591 60.4627 16.6802 61.4377C16.1141 62.4061 15.3141 63.2069 14.3583 63.7621C13.8509 64.0428 13.3077 64.2485 12.7445 64.3729C12.1517 64.5086 11.3613 64.5765 10.3733 64.5765H0.229431V40.9595H9.8463Z" fill="white"/>
<path d="M48.4623 62.8629C46.7387 61.3134 45.8879 58.989 45.9098 55.8898H51.2782C51.2562 57.1792 51.6295 58.1633 52.3979 58.8419C53.1664 59.5206 54.2423 59.8599 55.6255 59.8599C56.7672 59.8599 57.6674 59.6676 58.3261 59.2831C58.9848 58.8985 59.3142 58.3103 59.3142 57.5186C59.3142 56.8625 58.9793 56.3875 58.3097 56.0934C57.6701 55.8088 57.0018 55.5982 56.3171 55.4657C55.6584 55.3412 55.2523 55.2658 55.0986 55.2394C53.6065 54.9551 52.141 54.5388 50.7183 53.9952C49.5239 53.5377 48.4596 52.7794 47.6224 51.7896C46.7881 50.7943 46.3709 49.4822 46.3709 47.8534C46.3709 46.2247 46.7881 44.8391 47.6224 43.6967C48.4568 42.5543 49.5711 41.7004 50.9653 41.1348C52.4201 40.5578 53.9679 40.27 55.5267 40.2865C57.5247 40.2865 59.2538 40.6711 60.7139 41.4402C62.174 42.2093 63.3212 43.3744 64.1555 44.9353C64.5427 45.5954 64.8001 46.3275 64.913 47.09C64.9995 47.7593 65.0435 48.4337 65.0448 49.109H59.6765C59.6765 47.8874 59.3581 46.9882 58.7214 46.4113C58.0846 45.8345 57.0966 45.546 55.7572 45.546C54.6814 45.546 53.8471 45.7383 53.2542 46.1229C52.6614 46.5075 52.365 47.0278 52.365 47.6838C52.365 48.4077 52.7602 48.9393 53.5506 49.2786C54.5216 49.674 55.5245 49.9805 56.5477 50.1948C58.5237 50.602 60.0662 50.9922 61.175 51.3655C62.2928 51.7451 63.289 52.4314 64.0567 53.3505C64.8691 54.3006 65.2753 55.6353 65.2753 57.3546C65.2753 58.9833 64.8362 60.3859 63.9579 61.5622C63.0797 62.7385 61.9215 63.6377 60.4833 64.2598C59.0064 64.8898 57.4215 65.2071 55.8231 65.193C52.6394 65.1892 50.1858 64.4125 48.4623 62.8629Z" fill="white"/>
<path d="M78.7785 64.5765V46.9316H70.1167V40.9595H88.6259V46.9316H79.9641V64.5765H78.7785Z" fill="white"/>
<path d="M94.8506 40.9595H111.548V46.9316H100.845V49.9176H109.737V55.5844H100.845V58.6044H111.548V64.5765H94.8506V40.9595Z" fill="white"/>
<path d="M136.281 64.5765H118.661V40.9595H127.586C129.497 40.9595 131.056 41.3101 132.263 42.0114C133.417 42.658 134.374 43.621 135.03 44.7938C135.691 45.9805 136.032 47.3278 136.018 48.6961C136.033 50.414 135.475 52.0853 134.437 53.4297C133.442 54.7801 132.04 55.7526 130.452 56.1952L136.281 64.5765ZM119.88 43.0294V55.2111H128.344L119.88 43.0294ZM119.88 63.321H133.976L129.167 56.4327L128.146 56.4666H119.88V63.321ZM120.736 42.215L129.694 55.1093C131.133 54.813 132.425 54.009 133.35 52.8358C134.301 51.6806 134.815 50.2107 134.799 48.6961C134.812 47.5021 134.505 46.3277 133.91 45.3028C133.318 44.2853 132.447 43.4708 131.407 42.9615C130.441 42.4638 129.178 42.215 127.619 42.215H120.736Z" fill="white"/>
</svg>
